<?xml version="1.0" standalone="no"?>
<!DOCTYPE svg PUBLIC "-//W3C//DTD SVG 20010904//EN"
 "http://www.w3.org/TR/2001/REC-SVG-20010904/DTD/svg10.dtd">
<svg version="1.0" xmlns="http://www.w3.org/2000/svg"
 width="206.000000pt" height="56.000000pt" viewBox="0 0 206.000000 56.000000"
 preserveAspectRatio="xMidYMid meet">

<g transform="translate(0.000000,56.000000) scale(0.100000,-0.100000)"
fill="#f0f0f5" stroke="none">
<path d="M157 463 c-3 -4 -22 -71 -42 -148 -21 -77 -44 -145 -52 -151 -7 -6
-13 -28 -13 -48 l0 -36 85 0 85 0 0 40 c0 22 -4 40 -10 40 -5 0 -10 9 -10 21
0 17 5 20 37 17 27 -2 39 -8 41 -21 2 -10 -3 -17 -12 -17 -12 0 -16 -10 -16
-40 l0 -40 100 0 100 0 0 39 c0 22 -5 41 -12 43 -6 2 -30 71 -53 154 l-41 149
-91 3 c-50 1 -93 -1 -96 -5z m96 -170 c6 -30 4 -33 -17 -33 -23 0 -23 1 -13
52 11 54 17 50 30 -19z"/>
<path d="M610 430 c0 -29 4 -40 15 -40 10 0 15 -10 15 -32 0 -29 -1 -30 -18
-15 -26 23 -72 30 -102 15 -71 -37 -82 -213 -16 -267 25 -21 91 -19 115 3 19
17 21 17 21 3 0 -14 12 -17 70 -17 l70 0 0 40 c0 22 -4 40 -10 40 -6 0 -10 58
-10 155 l0 155 -75 0 -75 0 0 -40z m28 -206 c2 -41 -1 -53 -14 -58 -25 -10
-44 13 -44 53 0 40 16 63 40 59 11 -2 16 -18 18 -54z"/>
<path d="M1120 430 c0 -22 5 -40 10 -40 6 0 10 -45 10 -115 0 -70 -4 -115 -10
-115 -5 0 -10 -18 -10 -40 l0 -40 105 0 105 0 0 39 c0 33 -4 40 -22 43 -19 2
-23 9 -23 38 l0 35 69 6 c89 8 116 33 116 110 0 103 -29 119 -215 119 l-135 0
0 -40z m205 -80 c0 -29 -4 -36 -22 -38 -21 -3 -23 1 -23 38 0 37 2 41 23 38
18 -2 22 -9 22 -38z"/>
<path d="M1830 405 c0 -8 -9 -24 -20 -35 -21 -21 -29 -90 -10 -90 6 0 10 -29
10 -67 0 -38 6 -79 13 -93 17 -34 79 -54 132 -43 38 8 40 10 43 50 3 38 1 41
-18 36 -33 -9 -50 14 -50 68 l0 49 35 0 c34 0 35 1 35 40 0 39 -1 40 -35 40
-32 0 -35 2 -35 30 0 29 -1 30 -50 30 -38 0 -50 -4 -50 -15z"/>
<path d="M873 351 c-51 -24 -75 -66 -75 -132 1 -95 52 -143 153 -143 97 -1
151 56 148 156 -2 50 -6 61 -34 88 -53 51 -122 62 -192 31z m95 -83 c16 -16
15 -83 -2 -97 -27 -22 -46 -2 -46 48 0 26 3 51 7 54 10 11 28 8 41 -5z"/>
<path d="M1589 361 c-71 -22 -99 -61 -99 -136 0 -119 93 -177 225 -143 44 11
50 17 53 41 6 51 -1 56 -58 44 -36 -7 -58 -7 -75 1 -46 21 -27 32 55 32 l80 0
0 43 c0 95 -81 148 -181 118z m69 -73 c19 -19 14 -28 -18 -28 -32 0 -37 9 -18
28 15 15 21 15 36 0z"/>
</g>
</svg>
